<svg width="323" height="342" viewBox="0 0 323 342" fill="none" xmlns="http://www.w3.org/2000/svg">
<g clip-path="url(#clip0_1010_67)">
<path d="M243.573 241.949C250.637 219.793 242.688 198.846 230 177C296.243 198.141 323.848 236.186 322.008 278.654C320.449 314.051 296.677 342.362 250.853 342.362C205.029 342.362 181.197 315.483 179.698 278.654C179.438 268.596 181.953 258.659 186.971 249.923C191.988 241.187 199.317 233.985 208.16 229.101C208.807 236.312 210.548 239.678 213.036 244.298C219.613 256.513 239.002 256.267 243.573 241.949Z" fill="#101010"/>
<path d="M0 28.1882C0 12.6203 12.6203 0 28.1883 0H114.632C130.2 0 142.821 12.6203 142.821 28.1883V313.829C142.821 329.397 130.2 342.018 114.632 342.018H28.1883C12.6203 342.018 0 329.397 0 313.829V28.1882Z" fill="#101010"/>
<path d="M322.5 71.4103C322.5 110.849 290.529 142.821 251.09 142.821C211.651 142.821 179.68 110.849 179.68 71.4103C179.68 31.9715 211.651 0 251.09 0C290.529 0 322.5 31.9715 322.5 71.4103Z" fill="#101010"/>
</g>
<defs>
<clipPath id="clip0_1010_67">
<rect width="323" height="342" fill="white"/>
</clipPath>
</defs>
</svg>
